<svg t="1639021608220" class="icon" viewBox="0 0 1024 1024" xmlns="http://www.w3.org/2000/svg" p-id="3236" xmlns:xlink="http://www.w3.org/1999/xlink" width="320" height="320"><defs><style/></defs><path d="M256 896a128 128 0 110-256 128 128 0 010 256zm0-85.333333a42.666667 42.666667.0 100-85.333334 42.666667 42.666667.0 000 85.333334zM176.725333 218.965333a42.666667 42.666667.0 01-12.117333-84.48A638.293333 638.293333.0 01256 128c353.450667.0 640 286.549333 640 640 0 30.762667-2.176 61.269333-6.485333 91.392a42.666667 42.666667.0 11-84.48-12.117333c3.754667-26.069333 5.632-52.565333 5.632-79.274667.0-306.346667-248.32-554.666667-554.666667-554.666667-26.709333.0-53.205333 1.877333-79.274667 5.632zm40.832 166.912a42.666667 42.666667.0 01-8.448-84.906666C224.64 299.434667 240.256 298.666667 256 298.666667 515.2 298.666667 725.333333 508.8 725.333333 768c0 15.744-.768 31.36-2.304 46.890667a42.666667 42.666667.0 11-84.906666-8.448A384 384 0 00217.557333 385.877333zM256 554.666667a42.666667 42.666667.0 010-85.333334A298.666667 298.666667.0 01554.666667 768a42.666667 42.666667.0 01-85.333334.0A213.333333 213.333333.0 00256 554.666667z" p-id="3237"/></svg>